<svg xmlns="http://www.w3.org/2000/svg" viewBox="0 0 64 64" width="64" height="64">
  <!-- Background circle -->
  <circle cx="32" cy="32" r="30" fill="#2980b9" stroke="#1e3a8a" stroke-width="2"/>
  
  <!-- Stylized "QB" for QwertyBits -->
  <g fill="white" font-family="monospace" font-weight="bold">
    <!-- Q -->
    <circle cx="22" cy="28" r="8" fill="none" stroke="white" stroke-width="3"/>
    <line x1="27" y1="33" x2="30" y2="36" stroke="white" stroke-width="2" stroke-linecap="round"/>
    
    <!-- B -->
    <path d="M 36 20 L 36 36 L 44 36 Q 48 36 48 32 Q 48 28 44 28 L 44 28 Q 48 28 48 24 Q 48 20 44 20 Z" stroke="white" stroke-width="2" fill="none"/>
    <line x1="36" y1="28" x2="44" y2="28" stroke="white" stroke-width="2"/>
  </g>
  
  <!-- Tech accent - small circuit pattern -->
  <g stroke="#16a085" stroke-width="1" fill="none" opacity="0.7">
    <circle cx="45" cy="15" r="2"/>
    <circle cx="52" cy="18" r="1.5"/>
    <line x1="45" y1="15" x2="52" y2="18"/>
    <circle cx="15" cy="50" r="1.5"/>
    <circle cx="20" cy="53" r="2"/>
    <line x1="15" y1="50" x2="20" y2="53"/>
  </g>
</svg>